<svg id="diente-perdido" xmlns="http://www.w3.org/2000/svg" viewBox="0 0 60 59"><defs><style>.cls-1{fill:#f4b30d;}.cls-2{fill:#717171;}</style></defs><title>Perdido</title><path class="cls-1" d="M54.5,76.5A14.93,14.93,0,0,1,39.57,62.93l0-.44h-.44a15,15,0,0,1,0-30h.44l0-.44a15,15,0,0,1,29.86,0l0,.41.41,0a15,15,0,0,1,0,29.86l-.41,0,0,.41A14.91,14.91,0,0,1,54.5,76.5Z" transform="translate(-24 -18)"/><path class="cls-2" d="M54.5,19A14.41,14.41,0,0,1,68.93,32.16L69,33l.83.08a14.49,14.49,0,0,1,0,28.86L69,62l-.08.83a14.49,14.49,0,0,1-28.86,0L40,62l-.89,0a14.49,14.49,0,0,1,0-29L40,33l.08-.88A14.43,14.43,0,0,1,54.5,19m0-1A15.51,15.51,0,0,0,39.07,32a15.49,15.49,0,0,0,0,31,15.5,15.5,0,0,0,30.86,0,15.5,15.5,0,0,0,0-30.86A15.49,15.49,0,0,0,54.5,18Z" transform="translate(-24 -18)"/><path class="cls-2" d="M69,33V62H40V33H69m1-1H39V63H70V32Z" transform="translate(-24 -18)"/></svg>